<svg xml:space="preserve" viewBox="0 0 1042 1042"><path d="M520.833 0c287.457 0 520.834 233.378 520.834 520.833l-.002 1.502-.003.418-.005 1.216-.002.317-.011 1.488-.005.349-.012 1.195-.005.407-.021 1.493-.002.123-.024 1.379-.009.421-.026 1.245-.005.273-.036 1.482-.009.374-.033 1.18-.01.392-.045 1.483-.006.207-.044 1.297-.015.422-.046 1.289-.008.214-.059 1.479-.017.39-.05 1.175-.016.373-.068 1.475-.013.265-.061 1.241-.021.418-.071 1.357-.007.133-.082 1.477-.023.402-.069 1.179-.021.348-.091 1.467-.02.308-.078 1.202-.028.411-.099 1.46-.001.018-.106 1.475-.029.409-.089 1.193-.024.316-.114 1.461-.027.34-.095 1.175-.033.401-.123 1.466-.01.109-.119 1.366-.037.414-.11 1.217-.026.274-.136 1.455-.034.363-.113 1.16-.038.387-.145 1.456-.02.194-.133 1.281-.043.413-.134 1.258-.024.22-.159 1.451-.042.379-.131 1.153-.041.368-.168 1.447-.03.254-.146 1.223-.05.41-.161 1.319-.018.143-.182 1.448-.05.391-.149 1.155-.045.344-.189 1.44-.04.297-.16 1.181-.055.404-.196 1.415-.005.034-.205 1.445-.057.4-.169 1.166-.046.314-.212 1.431-.05.33-.174 1.152-.06.395-.222 1.437-.015.093-.213 1.351-.065.403-.19 1.188-.045.274-.234 1.425-.059.353-.19 1.135-.065.381-.242 1.426-.032.18-.219 1.262-.072.405-.217 1.225-.039.221-.256 1.42-.067.369-.207 1.128-.067.363-.265 1.415-.046.242-.229 1.201-.077.401-.248 1.282-.029.149-.278 1.416-.076.382-.226 1.126-.068.34-.285 1.406-.059.287-.239 1.158-.083.395-.287 1.369-.01.049-.301 1.411-.083.39-.246 1.137-.067.309-.308 1.399-.07.318-.252 1.129-.087.386-.317 1.404-.018.078-.305 1.331-.091.393-.269 1.156-.064.272-.328 1.392-.081.341-.266 1.11-.09.373-.338 1.392-.041.168-.304 1.239-.098.394-.296 1.189-.056.223-.349 1.385-.092.359-.282 1.099-.091.356-.358 1.381-.06.229-.309 1.177-.104.391-.329 1.242-.042.155-.371 1.379-.101.37-.298 1.098-.092.334-.378 1.371-.076.274-.316 1.132-.109.386-.373 1.32-.017.061-.394 1.375-.109.379-.319 1.104-.089.306-.398 1.362-.091.306-.326 1.102-.112.376-.41 1.368-.019.063-.395 1.308-.117.382-.344 1.121-.082.271-.42 1.354-.102.329-.338 1.081-.115.365-.429 1.354-.05.154-.388 1.214-.122.383-.373 1.151-.072.223-.439 1.347-.115.346-.353 1.069-.115.349-.448 1.342-.073.217-.387 1.15-.129.38-.408 1.198-.054.159-.461 1.341-.124.359-.37 1.065-.114.327-.467 1.332-.092.261-.392 1.104-.133.375-.454 1.27-.026.072-.482 1.334-.133.367-.39 1.07-.11.301-.487 1.321-.109.294-.398 1.071-.137.367-.498 1.328-.018.047-.486 1.282-.141.37-.414 1.085-.609 1.579-.123.317-.409 1.05-.138.354-.516 1.315-.055.139-.471 1.185-.147.372-.444 1.111-.089.222-.526 1.304-.136.334-.422 1.036-.139.339-.534 1.301-.084.203-.464 1.12-.153.369-.481 1.152-.069.163-.546 1.297-.147.346-.438 1.031-.136.319-.553 1.289-.107.249-.464 1.071-.157.364-.531 1.217-.036.083-.567 1.29-.156.354-.458 1.032-.131.294-.571 1.279-.127.281-.468 1.038-.16.355-.583 1.285-.015.032-.573 1.252-.165.357-.482 1.046-.121.261-.591 1.269-.142.303-.476 1.015-.162.345-.601 1.269-.059.126-.55 1.154-.171.358-.513 1.068-.106.22-.61 1.259-.156.32-.487 1.001-.161.329-.617 1.256-.095.19-.537 1.086-.177.356-.552 1.104-.082.166-.629 1.251-.169.331-.503.994-.158.31-.634 1.244-.12.235-.534 1.036-.182.351-.602 1.163-.047.091-.649 1.243-.178.339-.523.994-.151.287-.653 1.231-.141.267-.536 1.002-.183.344-.665 1.237-.01.016-.66 1.22-.186.343-.548 1.003-.14.257-.67 1.22-.161.29-.54.978-.186.333-.68 1.221-.063.112-.627 1.119-.195.344-.578 1.022-.123.217-.688 1.21-.176.307-.552.962-.182.318-.698 1.208-.101.175-.61 1.05-.2.342-.617 1.055-.097.167-.709 1.201-.188.316-.565.953-.179.301-.714 1.194-.132.22-.601 1-.204.337-.671 1.107-.058.097-.728 1.193-.198.324-.585.952-.171.278-.73 1.182-.157.251-.6.964-.206.33-.744 1.187-.747 1.184-.208.329-.609.959-.158.249-.748 1.169-.177.276-.81 1.258-.758 1.17-.063.098-.704 1.08-.216.328-.64.976-.139.212-.766 1.159-.193.291-.613.92-.204.307-.773 1.156-.109.16-.679 1.01-.222.328-.68 1.002-.112.166-.783 1.149-.208.301-.625.912-.199.289-.789 1.141-.142.205-.668.959-.225.323-.734 1.049-.071.101-.803 1.139-.219.309-.643.907-.19.268-.805 1.128-.17.238-.662.922-.227.315-.811 1.121-.008.012-.822 1.129-.228.313-.667.912-.177.241-.821 1.115-.192.26-.664.896-.227.304-.832 1.116-.063.085-.778 1.037-.237.314-.698.924-.157.208-.838 1.103-.21.275-.671.877-.224.293-.846 1.1-.114.147-.747.966-.242.312-.74.948-.127.164-.855 1.092-.225.286-.683.866-.219.276-.86 1.085-.153.191-.73.916-.246.307-.793.987-.085.106-.873 1.08-.238.294-.7.86-.208.257-.877 1.071-.181.221-.723.879-.247.299-.871 1.052-.019.023-.893 1.072-.248.296-.723.863-.193.231-.892 1.058-.206.243-.722.85-.247.291-.903 1.058-.059.07-.852.992-.255.296-.754.872-.173.201-.907 1.044-.226.259-.727.83-.243.279-.917 1.041-.117.133-.814.919-.261.296-.795.891-.142.161-.924 1.032-.242.269-.737.818-.237.263-.93 1.026-.16.175-.791.869-.266.289-.849.927-.099.107-.94 1.02-.256.275-.753.812-.227.244-.944 1.011-.192.205-.781.831-.267.283-.927.982-.031.032-.96 1.01-.264.277-.777.812-.211.221-.958.996-.219.227-.777.802-.266.274-.97.997-.056.057-.922.942-.274.278-.806.818-.19.193-.973.981-.24.241-.78.783-.262.263-.982.979-.119.118-.878.87-.28.276-.847.835-.158.155-.989.968-.257.252-.789.767-.255.249-.995.962-.167.161-.85.818-.284.272-.902.863-.112.107-1.005.956-.271.256-.804.76-.244.231-1.009.946-.202.19-.836.781-.285.264-.98.91-.044.041-1.022.944-.283.26-.825.757-.229.208-1.022.932-.23.21-.83.751-.284.257-1.034.932-.049.044-.992.887-.291.26-.855.762-.206.182-1.036.917-.253.223-.831.73-.28.247-1.044.912-.12.106-.94.815-.297.258-.896.774-.172.149-1.051.902-.272.232-.838.716-.273.232-1.056.896-.171.145-.909.765-.301.253-.95.796-.127.106-1.066.888-.286.238-.852.705-.262.216-1.068.88-.21.173-.89.726-.302.247-1.028.835-.057.047-1.083.876-.298.239-.873.701-.245.197-1.082.862-.24.192-.88.698-.301.239-1.095.863-.041.032-1.06.83-.306.24-.902.702-.221.172-1.095.847-.266.205-.878.676-.297.228-1.105.844-.119.091-.999.759-.314.238-.941.71-.188.142-1.109.833-.285.212-.884.66-.29.216-1.114.826-.176.129-.962.708-.318.233-.996.729-.14.102-1.124.818-.3.218-.897.648-.278.2-1.126.809-.217.155-.94.671-.319.227-1.073.761-.071.05-1.139.803-.313.219-.916.642-.261.182-1.138.792-.25.173-.927.641-.319.219-1.152.791-.03.021-1.126.769-.322.219-.945.64-.236.16-1.151.775-.276.185-.924.619-.314.21-1.16.771-.117.077-1.056.699-.33.216-.984.645-.202.133-1.164.759-.297.193-.928.601-.306.198-1.169.752-.178.114-1.014.649-.334.211-1.037.66-.155.098-1.178.742-.314.198-.938.588-.294.184-1.179.734-.224.139-.988.61-.335.206-1.113.684-.085.052-1.193.728-.326.198-.959.58-.275.167-1.19.717-.26.155-.972.581-.334.198-1.205.716-.019.011-1.189.701-.337.198-.985.576-.251.147-1.203.699-.286.166-.967.558-.329.19-1.213.695-.113.064-1.112.633-.344.196-1.023.577-.217.124-1.215.682-.309.172-.969.54-.321.178-1.221.675-.179.1-1.064.584-.347.191-1.076.586-.169.092-1.229.665-.325.176-.978.526-.309.166-1.23.656-.229.121-1.033.548-.35.184-1.15.605-.099.053-1.243.648-.339.177-.996.516-.291.15-1.24.639-.266.135-1.016.519-.347.177-1.256.636-.004.002-1.253.63-.351.176-.394.198-483.37-9.956-1.073-.594-.263-.146-1.009-.564-.294-.163-1.207-.677-.216-.122-1.341-.759-1.206-.687-.143-.082-1.084-.621-.316-.182-1.211-.699-.022-.013-1.189-.691-.316-.184-1.099-.644-.117-.068-1.197-.706-.309-.182-1.028-.611-.199-.118-1.186-.709-.294-.176-.992-.597-.247-.149-1.18-.715-.268-.163-.982-.599-.277-.17-1.176-.722-.23-.141-.994-.614-.296-.185-1.175-.731-.168-.105-1.033-.647-.306-.193-1.177-.742-.072-.046-1.112-.706-.309-.197-1.108-.707-.073-.047-1.168-.753-.305-.196-1.021-.662-.168-.108-1.158-.755-.292-.191-.975-.641-.225-.148-1.15-.759-.271-.18-.955-.635-.262-.174-1.144-.767-.238-.159-.959-.646-.284-.192-1.141-.774-.189-.128-.985-.673-.296-.202-1.143-.785-.108-.075-1.047-.724-.3-.208-1.121-.78-.025-.016-1.139-.799-.299-.209-1.016-.716-.136-.096-1.127-.8-.288-.205-.96-.684-.202-.144-1.118-.804-.271-.196-.932-.673-.243-.176-1.112-.808-.244-.179-.927-.678-.268-.197-1.109-.817-.202-.149-.944-.7-.283-.21-1.108-.825-.136-.104-.99-.742-.291-.218-1.109-.838-.029-.023-1.081-.821-.29-.221-1.014-.774-.1-.077-1.097-.844-.283-.219-.945-.731-.177-.137-1.086-.846-.27-.211-.909-.712-.223-.175-1.08-.852-.246-.195-.897-.711-.253-.201-1.074-.858-.212-.169-.905-.728-.271-.217-1.071-.866-.158-.128-.939-.764-.279-.227-1.072-.877-.073-.06-1.006-.828-.282-.232-1.016-.841-.059-.049-1.065-.888-.278-.232-.932-.781-.148-.125-1.054-.888-.267-.225-.887-.753-.202-.172-1.045-.892-.248-.212-.869-.746-.235-.202-1.039-.897-.218-.19-.869-.755-.257-.223-1.034-.905-.174-.153-.891-.784-.268-.235-1.035-.916-.104-.092-.942-.84-.272-.243-1.024-.916-.013-.011-1.032-.93-.27-.243-.922-.836-.118-.107-1.02-.93-.261-.24-.868-.796-.179-.165-1.011-.931-.246-.228-.841-.781-.216-.202-1.004-.937-.222-.207-.835-.785-.24-.226-.998-.944-.186-.174-.847-.808-.255-.242-.996-.952-.128-.123-.886-.852-.261-.252-.996-.965-.034-.033-.964-.938-.261-.254-.915-.897-.085-.083-.984-.97-.255-.251-.849-.843-.156-.153-.974-.972-.242-.243-.816-.817-.198-.2-.966-.974-.222-.225-.803-.815-.224-.228-.96-.981-.192-.196-.809-.83-.239-.248-.958-.989-.145-.151-.834-.867-.249-.259-.956-1.001-.07-.074-.893-.937-.251-.265-.911-.964-.046-.05-.949-1.01-.247-.264-.833-.892-.129-.137-.937-1.01-.238-.257-.79-.857-.178-.192-.928-1.013-.22-.241-.772-.846-.207-.228-.921-1.017-.196-.216-.77-.855-.226-.251-.917-1.024-.157-.177-.787-.884-.236-.266-.916-1.034-.096-.111-.83-.943-.24-.273-.911-1.043-.004-.004-.912-1.049-.238-.275-.818-.947-.099-.116-.9-1.047-.23-.27-.767-.898-.156-.183-.889-1.048-.218-.258-.741-.879-.189-.224-.882-1.053-.196-.236-.733-.88-.211-.253-.876-1.058-.165-.2-.742-.903-.223-.271-.873-1.067-.116-.142-.773-.951-.228-.282-.873-1.08-.037-.046-.836-1.041-.228-.285-.804-1.008-.069-.086-.86-1.084-.223-.282-.745-.944-.132-.168-.85-1.085-.212-.271-.712-.914-.17-.219-.841-1.088-.195-.252-.698-.908-.194-.252-.835-1.092-.169-.222-.701-.923-.208-.274-.831-1.1-.129-.172-.72-.961-.216-.287-.829-1.111-.066-.09-.768-1.036-.216-.294-.794-1.077-.035-.047-.82-1.122-.214-.293-.722-.993-.107-.147-.809-1.12-.206-.285-.683-.951-.15-.21-.8-1.121-.192-.269-.663-.936-.177-.25-.793-1.126-.17-.241-.66-.944-.193-.276-.787-1.132-.137-.197-.674-.975-.202-.293-.784-1.141-.087-.127-.706-1.035-.205-.301-.783-1.155-.004-.005-.775-1.152-.203-.302-.701-1.049-.082-.121-.767-1.153-.197-.299-.655-.991-.13-.197-.758-1.153-.185-.284-.631-.968-.159-.244-.749-1.157-.168-.261-.622-.966-.178-.276-.743-1.162-.141-.222-.628-.989-.187-.297-.739-1.17-.1-.161-.651-1.039-.192-.307-.736-1.183-.037-.059-.701-1.132-.191-.312-.682-1.111-.054-.087-.724-1.187-.187-.309-.628-1.035-.109-.18-.713-1.186-.178-.297-.598-1-.141-.237-.705-1.188-.164-.277-.584-.992-.161-.273-.698-1.192-.142-.244-.584-1.005-.174-.299-.691-1.199-.11-.191-.599-1.045-.179-.313-.689-1.209-.059-.104-.634-1.123-.18-.32-.663-1.182-.024-.04-.68-1.221-.177-.319-.6-1.085-.087-.155-.668-1.218-.17-.31-.565-1.036-.122-.224-.66-1.219-.158-.293-.547-1.017-.145-.27-.652-1.221-.14-.264-.542-1.023-.157-.298-.645-1.227-.114-.219-.551-1.052-.164-.318-.641-1.236-.074-.144-.574-1.116-.168-.326-.637-1.248-.009-.017-.626-1.236-.165-.328-.573-1.139-.063-.125-.624-1.249-.16-.322-.533-1.075-.715-1.456-.151-.308-.512-1.046-.126-.262-.604-1.248-.136-.283-.501-1.043-.142-.296-.598-1.254-.115-.243-.503-1.064-.15-.319-.592-1.261-.083-.179-.519-1.115-.153-.332-.588-1.272-.034-.073-.554-1.211-.153-.336-.546-1.203-.039-.085-.577-1.278-.149-.333-.499-1.118-.084-.188-.565-1.276-.142-.321-.473-1.077-.111-.251-.556-1.277-.13-.299-.461-1.065-.125-.292-.549-1.28-.113-.265-.458-1.076-.135-.32-.542-1.287-.088-.209-.466-1.117-.141-.335-.536-1.296-.05-.12-.49-1.195-.14-.343-.519-1.276-.015-.034-.527-1.308-.137-.342-.467-1.166-.064-.161-.517-1.303-.132-.333-.436-1.111-.093-.237-.507-1.303-.122-.315-.42-1.089-.109-.286-.499-1.305-.109-.285-.414-1.092-.119-.317-.492-1.31-.089-.237-.416-1.122-.124-.337-.487-1.32-.059-.159-.432-1.186-.126-.348-.481-1.331-.01-.03-.468-1.307-.124-.349-.433-1.222-.044-.126-.467-1.33-.12-.344-.399-1.149-.075-.218-.458-1.329-.113-.328-.378-1.115-.094-.277-.448-1.329-.102-.303-.37-1.109-.104-.314-.44-1.333-.086-.262-.368-1.13-.11-.338-.434-1.34-.062-.195-.378-1.181-.112-.351-.428-1.352-.027-.086-.4-1.279-.111-.356-.398-1.286-.025-.081-.416-1.357-.107-.354-.36-1.19-.059-.194-.406-1.354-.101-.341-.339-1.144-.078-.263-.395-1.353-.093-.32-.327-1.129-.089-.307-.387-1.356-.081-.283-.322-1.139-.094-.337-.381-1.362-.063-.226-.324-1.179-.097-.354-.374-1.371-.036-.135-.339-1.257-.097-.362-.362-1.361-.006-.024-.363-1.383-.095-.362-.32-1.238-.043-.164-.352-1.378-.09-.352-.297-1.177-.062-.246-.343-1.376-.083-.334-.282-1.15-.073-.299-.335-1.378-.072-.303-.277-1.151-.079-.333-.325-1.383-.06-.253-.275-1.18-.082-.355-.319-1.39-.04-.175-.281-1.245-.082-.366-.313-1.402-.009-.041-.3-1.367-.08-.369-.28-1.293-.026-.124-.3-1.402-.076-.363-.254-1.212-.047-.224-.289-1.398-.071-.348-.239-1.175-.057-.287-.28-1.397-.064-.322-.229-1.166-.065-.327-.271-1.401-.052-.279-.226-1.185-.067-.353-.263-1.409-.038-.209-.227-1.235-.067-.37-.257-1.418-.018-.099-.236-1.335-.066-.374-.235-1.357-.014-.075-.243-1.425-.062-.371-.211-1.253-.032-.198-.233-1.419-.059-.36-.194-1.202-.042-.271-.224-1.418-.054-.337-.182-1.182-.049-.32-.215-1.42-.044-.301-.177-1.191-.052-.35-.207-1.426-.034-.241-.174-1.231-.052-.369-.199-1.435-.02-.148-.177-1.309-.051-.378-.189-1.435-.001-.012-.188-1.447-.048-.379-.163-1.3-.02-.163-.177-1.441-.044-.37-.147-1.232-.03-.252-.167-1.437-.04-.351-.136-1.202-.034-.31-.158-1.437-.034-.319-.128-1.201-.036-.346-.15-1.442-.027-.269-.122-1.228-.037-.369-.14-1.449-.018-.19-.121-1.291-.037-.381-.131-1.461-.005-.056-.123-1.413-.033-.384-.114-1.355-.01-.121-.118-1.46-.03-.379-.098-1.266-.018-.229-.109-1.456-.026-.363-.088-1.223-.021-.297-.099-1.454-.022-.337-.079-1.212-.022-.339-.089-1.457-.018-.293-.072-1.23-.021-.366-.082-1.464-.012-.224-.066-1.28-.02-.382-.073-1.473-.005-.113-.064-1.377-.016-.389-.061-1.42-.003-.067-.059-1.48-.014-.386-.048-1.306-.007-.199-.049-1.473-.012-.374-.037-1.25-.009-.277-.039-1.472-.009-.351-.029-1.227-.007-.329-.031-1.473-.006-.314-.022-1.234-.005-.362-.021-1.477-.003-.254-.015-1.272-.003-.382-.013-1.485v-.161l-.006-1.35-.002-.391L0 520.833C0 233.378 233.377 0 520.833 0" fill="#cba6f7"/><path d="m520.833 0 1.651.003.55.002 1.101.005.658.006.991.007.705.007.943.012.729.009.917.014.744.012.902.016.754.014.892.019.76.017.884.021.764.02.878.024.767.022.874.027.77.024.87.029.772.027.868.031.771.029.867.035.771.032.867.037.769.034.867.04.767.036.87.043.764.039.872.046.759.039.878.049.752.043.885.052.743.044.896.055.731.046.913.06.713.047.943.063.682.047 1.001.072.622.044 1.173.088.447.034 1.619.125.392.032 1.227.1.61.051 1.007.084.677.06.939.081.709.064.905.082.728.068.885.082.74.072.872.085.748.074.862.086.754.076.855.089.758.08.85.09.76.083.846.092.762.086.844.095.762.087.841.097.763.091.84.1.763.092.838.102.762.095.839.106.76.096.84.108.757.098.842.112.753.1.844.114.75.102.85.118.742.103.858.122.732.104.872.127.718.104.896.132.691.103.954.145.631.096 1.193.183.391.061.038.006 1.534.242.61.098.97.156.692.114.886.145.726.121.851.143.742.126.834.143.752.131.822.142.759.134.813.144.764.138.807.145.768.14.8.147.771.143.796.15.774.146.792.15.774.149.79.152.775.151.787.156.776.153.784.157.779.157.78.159.778.158.779.161.779.163.776.162.78.164.774.165.78.167.77.167.783.17.766.168.784.173.762.17.787.175.756.171.79.18.747.171.799.183.724.168.819.191.522.123.993.235.874.209.655.157.839.204.698.169.827.203.708.173.821.204.71.178.82.206.711.18.818.208.712.183.816.211.71.184.816.213.709.187.817.216.705.188.818.219.703.188.82.223.699.19.82.226.696.192.822.228.691.192.826.233.685.193.829.235.678.194.835.24.671.194.84.244.66.193.85.25.647.192.86.255.631.189.874.263.607.184.897.272.571.174.93.286.512.158.988.306.386.121a538 538 0 0 1 5.379 1.713l.129.041 1.113.363.374.123 1.022.336.463.154.976.325.507.168.948.319.532.18.932.316.546.187.92.315.556.19.913.317.559.195.909.317.561.197.908.32.56.198.907.324.557.199.91.326.55.2.915.331.543.198.921.337.532.197.929.344.519.193.942.35.501.189.957.36.479.18.978.373.448.171 1.006.385.405.156 1.048.406.342.132 1.35.527 1.208.476.056.022a520 520 0 0 1 8.432 3.418h.001l1.273.531.157.066 1.185.498.242.103 1.131.479.293.125 1.095.469.326.139 1.072.463.345.149 1.057.459.358.156 1.047.459.364.16 1.043.461.364.162 1.042.463.361.162 1.045.469.353.159 1.052.476.341.155 1.064.485.323.147 1.081.496.298.138 1.104.511.264.124 1.136.529.22.104 1.178.553.161.076 1.236.586.072.035a515 515 0 0 1 16.237 8.073l.004.002 1.303.679.055.028 1.266.664.088.047 1.242.657.108.057 1.226.652.119.063 1.219.654.121.065 1.219.657.116.064 1.224.664.103.058 1.237.676.083.046 1.256.692.055.031 1.285.712.013.007c145.336 80.907 248.013 229.413 265.407 402.895l.005.05.149 1.51.009.098.141 1.47.013.14.133 1.435.015.175.127 1.405.018.207.119 1.377.02.237.112 1.353.022.263.107 1.33.022.286.101 1.31.023.308.096 1.291.023.33.091 1.273.024.355.085 1.249.104 1.594-495.416 495.415-275.511-5.674c-101.558-56.058-182.45-145.04-228.252-252.537l-.001-.003a498 498 0 0 1-2.927-7.013l-.014-.033-.569-1.398-.563-1.397-.018-.043-.557-1.392-.563-1.42-.546-1.386-.023-.059-.545-1.398-.535-1.387-.034-.086-.528-1.38-.542-1.425-.004-.011-.517-1.374-.031-.083-.523-1.4-.508-1.377-.045-.122-.504-1.373-.513-1.416-.024-.069-.48-1.333-.036-.1-.5-1.405-.484-1.369-.053-.154-.479-1.368-.487-1.406-.041-.119-.445-1.301-.039-.114-.48-1.413-.457-1.362-.061-.179-.456-1.37-.461-1.396-.052-.162-.418-1.277-.039-.124-.458-1.414-.009-.028-.426-1.334-.065-.203-.434-1.372-.435-1.387-.062-.198-.391-1.263-.039-.129-.432-1.406-.029-.095-.387-1.279-.068-.223-.414-1.377-.409-1.378-.068-.23-.369-1.256-.037-.127-.407-1.4-.043-.152-.355-1.236-.068-.238-.394-1.386-.386-1.369-.07-.257-.35-1.258-.033-.12-.383-1.396-.053-.198-.327-1.204-.068-.25-.373-1.395-.36-1.362-.075-.279-.331-1.269-.027-.106-.36-1.393-.061-.237-.301-1.18-.066-.259-.351-1.394-.015-.059-.326-1.308-.073-.299-.317-1.289-.02-.083-.337-1.392-.065-.269-.279-1.165-.063-.263-.327-1.389-.031-.13-.291-1.249-.072-.314-.304-1.323-.012-.049-.315-1.392-.067-.296-.258-1.158-.059-.263-.304-1.385-.041-.186-.262-1.205-.07-.326-.294-1.372-.294-1.393-.066-.32-.24-1.156-.054-.258-.282-1.385-.047-.233-.237-1.17-.067-.335-.274-1.384-.27-1.385-.066-.339-.222-1.161-.049-.25-.261-1.384-.05-.27-.213-1.147-.063-.34-.255-1.395-.003-.016-.245-1.365-.063-.355-.207-1.174-.041-.233-.24-1.386-.052-.301-.192-1.13-.058-.344-.233-1.392-.017-.101-.211-1.291-.06-.366-.191-1.196-.035-.21-.218-1.389-.052-.326-.172-1.122-.054-.341-.21-1.393-.025-.167-.183-1.236-.056-.374-.179-1.228-.025-.178-.198-1.394-.049-.346-.155-1.119-.048-.338-.189-1.392-.029-.219-.159-1.196-.05-.38-.166-1.272-.017-.135-.177-1.398-.045-.364-.14-1.122-.04-.328-.169-1.396-.03-.26-.137-1.166-.045-.385-.153-1.331-.008-.076-.157-1.405-.163-1.506-.035-.317-.148-1.398-.03-.293-.117-1.147-.039-.386-.14-1.409-.135-1.412-.037-.387-.107-1.144-.028-.3-.125-1.403-.028-.319-.099-1.133-.033-.385-.118-1.412-.007-.078-.109-1.342-.031-.394-.09-1.166-.022-.277-.104-1.408-.026-.341-.08-1.127-.027-.379-.097-1.415-.01-.149-.084-1.28-.026-.4-.074-1.197-.016-.245-.084-1.414-.021-.359-.062-1.125-.021-.372-.076-1.418-.01-.203-.063-1.237-.019-.404-.058-1.234-.01-.208-.062-1.419-.016-.375-.047-1.127-.015-.363-.053-1.421-.01-.247-.042-1.204-.013-.405-.042-1.286-.004-.156-.042-1.428-.01-.385-.03-1.136-.008-.35-.033-1.425-.006-.281-.023-1.182-.007-.404-.023-1.354-.001-.088-.02-1.437-.005-.395-.012-1.149-.004-.332-.011-1.429-.002-.311-.005-1.165-.001-.402L0 520.833C0 233.378 233.377 0 520.833 0" fill="#74c7ec"/><path d="m520.833 0 1.505.002.422.002 1.193.005.348.003 1.491.011.326.004 1.206.013.425.005 1.421.021.083.001 1.495.026.415.008 1.18.024.363.009 1.484.034.303.008 1.218.034.428.011 1.354.041.147.005 1.487.049.408.015 1.167.042.376.014 1.48.058.273.012 1.235.053.429.019 1.3.06.199.01 1.478.072.399.021 1.157.06.389.021 1.473.081.241.015 1.257.073.43.026 1.253.078.243.015 1.469.096.39.026 1.148.078.401.028 1.467.105.203.014 1.283.096.43.034 1.215.093.28.022 1.458.119.381.032 1.141.096.412.035 1.459.127.159.015 1.317.119.431.039 1.179.111.313.029 1.448.141.37.037 1.135.113.423.043 1.45.15.108.012 1.356.144.434.047 1.146.125.343.038 1.436.162.362.042 1.127.131.435.05 1.4.168.049.005.039.006 1.405.172.437.054 1.114.14.372.047 1.422.183.354.046 1.121.148.447.06 1.3.176.149.021 1.421.196.441.063 1.084.153.399.056 1.407.205.348.051 1.112.165.459.068 1.218.185.227.035 1.401.215.448.071 1.053.166.426.068 1.39.223.342.057 1.103.181.475.078 1.143.192.294.049 1.38.236.458.079 1.021.178.453.079 1.372.243.339.062 1.09.196.492.089 1.077.198.353.065 1.358.255.469.088.988.188.481.092 1.35.261.339.066 1.076.212.511.101 1.014.203.408.082 1.334.271.483.099.951.197.511.106 1.303.273.027.005.339.072 1.057.227.533.114.953.206.459.1 1.308.287.503.112.912.202.54.122 1.137.257.193.044.322.074 1.035.236.556.13.894.207.508.119 1.28.302.526.126.869.207.571.138 1.004.243.323.079.314.078 1.003.246.585.145.834.207.555.14 1.249.315.555.142.819.21.607.155.89.231.431.112.316.083.96.252.617.163.772.205.604.161 1.214.328.592.16.764.209.644.176.789.217.523.145.335.094.899.25.653.185.709.199.651.186 1.088.311.097.027.632.182.699.203.682.199.696.203.603.178.385.113.809.239.695.208.641.192.7.21.767.232.408.124.658.201.626.191.724.224.607.187.677.211.491.153.661.207.743.235.568.179.75.238.563.18.6.192.699.226.536.173.771.251.52.17.743.243.732.241.379.125.797.265.49.164.801.268.412.139.736.248.758.258.43.146.821.281.434.15.804.277 1.081.376.847.295.407.143.852.3.289.102.84.299.844.301.297.107.876.315.348.125.861.312 1.073.391.884.324.314.116.908.336.181.067.926.345.962.361.131.049.934.352.26.099.914.347 1.067.407.932.359.209.081.966.374.082.032.999.39 1.061.416.985.389.169.067.964.383 1.057.423.995.401.094.037c1.379.557 2.756 1.121 4.147 1.696l.072.031c116.267 48.171 211.349 137.241 267.28 249.237l.11.22.446.897.048.096.46.932.359.727.192.391.361.737.253.518.33.678-684.014 684.013-35.976-.741C152.758 912.578 63.244 804.421 23.133 674.675l-.008-.024-.327-1.064-.013-.041-.321-1.051-.015-.049-.318-1.05-.014-.046-.318-1.058-.011-.037-.322-1.078-.004-.014a520 520 0 0 1-3.453-12.171l-.008-.032-.286-1.06-.027-.1-.265-.995-.039-.145-.252-.952-.046-.177-.242-.921-.052-.2-.234-.902-.056-.213-.229-.89-.056-.222-.226-.887-.057-.223-.225-.889-.054-.219-.226-.9-.052-.207-.228-.921-.046-.185-.234-.955-.037-.151-.247-1.013-.022-.092a524 524 0 0 1-1.584-6.746l-.251-1.106-.03-.136-.218-.972-.047-.213-.199-.897-.057-.262-.186-.848-.065-.295-.177-.817-.069-.318-.171-.796-.071-.335-.166-.78-.073-.345-.163-.772-.073-.353-.159-.768-.074-.354-.157-.768-.073-.354-.157-.772-.07-.349-.157-.784-.068-.337-.159-.802-.063-.319-.163-.834-.057-.287-.172-.888-.045-.233-.189-.989-.026-.133a474 474 0 0 1-.843-4.547l-.035-.19-.167-.933-.053-.291-.147-.832-.061-.347-.136-.779-.066-.381-.128-.745-.07-.404-.123-.723-.071-.42-.119-.709-.073-.432-.116-.698-.072-.438-.113-.693-.072-.444-.111-.69-.071-.446-.11-.689-.07-.446-.109-.692-.069-.443-.108-.698-.067-.438-.108-.707-.063-.428-.109-.725-.062-.411-.111-.753-.056-.383-.116-.806-.049-.331-.131-.922-.031-.215-.161-1.145-.159-1.156-.018-.132-.137-1.006-.043-.322-.11-.817-.051-.396-.098-.744-.056-.434-.091-.706-.058-.458-.087-.685-.059-.473-.083-.669-.06-.485-.081-.658-.058-.493-.079-.653-.058-.497-.077-.648-.058-.501-.074-.646-.058-.503-.072-.646-.057-.503-.071-.647-.055-.502-.07-.651-.055-.499-.07-.657-.051-.492-.069-.668-.049-.483-.071-.684-.047-.466-.07-.715-.044-.436-.074-.777-.037-.375-.092-.967-.016-.185-.108-1.161-.019-.214-.086-.939-.033-.393-.066-.761-.04-.453-.06-.702-.039-.483-.057-.672-.041-.502-.052-.655-.041-.512-.051-.644-.04-.521-.048-.638-.04-.526-.047-.633-.038-.529-.045-.631-.038-.532-.043-.63-.037-.532-.043-.63-.034-.532-.041-.632-.034-.531-.04-.636-.033-.527-.038-.64-.032-.524-.037-.647-.03-.518-.036-.659-.029-.505-.036-.681-.025-.484-.037-.722-.023-.443-.041-.83-.016-.336-.055-1.169-.007-.186-.044-.981-.018-.412-.031-.755-.019-.474-.028-.695-.019-.502-.025-.668-.019-.518-.022-.652-.018-.528-.022-.643-.017-.536-.018-.636-.017-.539-.018-.634-.015-.543-.016-.631-.014-.544-.015-.63-.012-.546-.014-.63-.011-.546-.012-.632-.01-.543-.011-.635-.009-.542-.01-.639-.007-.537-.008-.647-.007-.53-.006-.658-.005-.52-.005-.676-.004-.502-.004-.709-.003-.47-.002-.787-.002-.392-.001-1.18C0 233.378 233.377 0 520.833 0" fill="#a6e3a1"/><path d="M151.317 887.736C57.809 793.571 0 663.9 0 520.833 0 233.378 233.377 0 520.833 0 663.9 0 793.571 57.808 887.736 151.316z" fill="#f9e2af"/><path d="M50.303 744.277C18.05 676.534 0 600.775 0 520.833 0 233.378 233.377 0 520.833 0c79.942 0 155.701 18.049 223.444 50.303z" fill="#fab387"/><path d="M.768 549.339A528 528 0 0 1 0 520.833C0 233.378 233.377 0 520.833 0c9.573 0 19.085.259 28.506.769z" fill="#f38ba8"/><path d="M269.674 977.131c7.785-59.488 19.297-111.537 34.579-156.189-73.56-37.722-127.942-101.154-140.615-192.755-11.051-79.837 7.225-172.904 54.825-238.87-11.693-44.266-27.642-129.49-16.025-177.877 3.062-12.757 14.648-21.302 27.78-20.493 62.02 3.845 112.315 28.153 152.891 75.243 76.345-28.397 173.201-27.94 236.23-9.537 32.985-45.823 72.106-70.558 124.009-83.239 12.199-2.991 24.474 2.579 30.244 13.703 23.265 44.893 25.73 107.959 13.868 160.359 149.797 144.567 111.503 355.084-54.704 455.155 12.191 59.401 18.965 120.874 20.292 184.453-69.929 34.928-148.795 54.583-232.215 54.583-91.037 0-176.651-23.408-251.159-64.536" fill="#171622"/><path d="M694.109 394.75c35.249-2.122 65.616 21.333 74.968 53.545.934 3.235-.367 6.515-3.276 8.194-2.923 1.678-6.504 1.206-8.908-1.19-15.672-15.595-37.407-24.705-60.626-23.515-23.02 1.175-42.918 12.207-56.035 28.779-1.959 2.487-5.265 3.265-8.173 1.907-2.909-1.357-4.484-4.409-3.964-7.645 5.096-31.907 31.315-57.985 66.014-60.075m-229.007 5.523c20.02-1.236 38.77 5.219 53.847 16.893 15.213 11.779 26.723 28.825 32.081 48.478 1.071 3.968-.46 7.997-3.811 10.026-3.352 2.014-7.455 1.388-10.194-1.526-17.954-19.059-42.857-30.245-69.459-28.886-26.218 1.343-48.871 14.664-63.717 34.654-2.266 3.082-5.985 3.983-9.276 2.304-3.29-1.678-5.142-5.417-4.576-9.263 2.831-19.318 11.723-36.819 24.703-49.791 13.087-13.076 30.535-21.653 50.402-22.889m151.223 120.321c10.759-.687 21.198-1.358 31.284-1.985 3.337-.198 6.583 2.549 8.25 6.943 1.669 4.395 1.332 9.186-.811 12.436-13.422 20.357-21.995 30.458-31.927 31.694-10.241 1.267-22.301-6.974-44.066-24.155-3.919-3.068-6.108-8.409-5.618-13.642.459-5.249 3.567-8.789 7.837-9.065 12.092-.778 23.785-1.51 35.051-2.226m6.979 73.716c2.54-3.418 6.505-4.135 9.887-1.83 10.73 7.415 20.02 10.04 27.965 8.255 7.775-1.77 16.101-3.479 22.652-13.718 10.209-15.931 13.04-5.86 7.883 6.943-3.184 7.859-9.215 17.06-17.633 23.163-8.632 6.241-20.097 9.461-34.208 4.533-4.913-1.71-9.857-.58-14.082 3.234-9.826 8.866-21.734 13.825-34.101 14.024-12.934.213-26.709-4.716-39.229-16.038-13.882-12.558-13.806-26.353 8.754-12.406 13.21 8.21 24.704 5.814 34.745 3.876 9.781-1.923 18.872-8.606 27.367-20.036" fill="#c2cbf1"/><path d="M616.661 875.066c-10.423 21.531-35.77 38.927-57.688 40.711-2.388.184-4.53-.93-5.724-3.005-17.448-30.305-19.346-63.662-13.546-91.708.352-1.694 1.286-3.022 2.771-3.923 1.499-.9 3.106-1.128 4.775-.656q44.379 12.43 67.178 31.816c10.53-13.825 25.056-23.392 43.591-28.672 3.168-.9 6.474.901 7.438 4.029 6.781 22.187 8.617 46.006 2.817 67.476-.843 3.112-4.929 5.616-8.878 4.578-15.367-4.013-31.27-11.704-42.734-20.646" fill="#e48c9c"/></svg>